# xmcd
# 
# Track frame offsets:
#     182
#     10877
#     20812
#     32317
#     44287
#     55175
#     67962
#     77910
#     87742
#     100012
#     109477
#     119805
#     127975
#     138737
# 
# Disc length: 1986
# 
# Revision: 1
# Processed by: cddbd v1.5.2PL0 Copyright (c) Steve Scherf et al.
# Submitted via: fre:ac v1.1beta1pre5
# 
DISCID=c307c00e
DTITLE=Johnny Cash - Folsom Prison Blues
DYEAR=0
DGENRE=Country
TTITLE0=Gold Cold Heart
TTITLE1=I could never be ashamed of you
TTITLE2=Big River
TTITLE3=You're the nearest thing to heaven
TTITLE4=I love you because
TTITLE5=Folsom Prison Blues
TTITLE6=Rock Island Line
TTITLE7=Ballad of  Teenage Queen
TTITLE8=Next In Line
TTITLE9=Just about time
TTITLE10=There you go
TTITLE11=Sugar Time
TTITLE12=I just thought you'd like to know
TTITLE13=Goodbye little darling, goodbye
EXTD=ID3G: 2
EXTT0=
EXTT1=
EXTT2=
EXTT3=
EXTT4=
EXTT5=
EXTT6=
EXTT7=
EXTT8=
EXTT9=
EXTT10=
EXTT11=
EXTT12=
EXTT13=
PLAYORDER=
